<?xml version="1.0" encoding="UTF-8" standalone="no"?>
<svg xmlns:ffdec="https://www.free-decompiler.com/flash" xmlns:xlink="http://www.w3.org/1999/xlink" ffdec:objectType="shape" height="89.05px" width="141.05px" xmlns="http://www.w3.org/2000/svg">
  <g transform="matrix(1.0, 0.0, 0.0, 1.0, -148.55, 71.95)">
    <path d="M157.95 -34.3 Q152.85 -33.55 149.7 -37.45 L149.05 -38.35 150.0 -39.0 158.0 -36.25 158.9 -37.15 Q151.75 -40.6 152.1 -48.4 152.15 -49.65 152.5 -50.9 L152.85 -50.5 152.5 -48.65 Q154.5 -42.35 160.5 -39.65 L161.0 -38.5 163.5 -40.1 Q159.45 -48.85 164.6 -57.15 161.8 -48.95 166.8 -41.7 175.9 -45.2 185.2 -42.75 192.95 -40.65 198.2 -34.7 191.9 -51.05 178.35 -61.85 171.8 -67.0 163.85 -69.35 L160.95 -69.85 153.7 -69.65 Q166.3 -75.0 177.55 -67.8 180.0 -66.15 182.05 -64.0 L185.8 -59.0 Q191.2 -50.2 197.5 -42.25 203.8 -34.3 211.0 -27.0 L217.1 -26.65 217.35 -23.65 Q207.4 -21.4 201.35 -29.75 203.75 -24.5 201.5 -19.4 L200.0 -19.1 199.35 -19.65 198.55 -21.95 Q196.4 -17.4 191.25 -17.7 187.8 -17.95 186.35 -21.15 L186.35 -21.9 185.85 -22.65 Q185.85 -28.25 190.8 -30.05 L192.6 -30.5 193.65 -30.45 Q186.7 -38.2 176.3 -39.0 L168.5 -38.4 167.85 -37.65 157.95 -34.3 M191.85 -3.7 L193.1 -3.65 192.6 -2.25 Q182.1 0.65 172.1 -3.35 162.05 -7.45 158.45 -17.9 163.95 -9.3 173.25 -5.75 182.4 -2.05 191.85 -3.7 M155.45 -13.3 Q154.7 -10.55 151.8 -11.3 L154.75 -13.65 155.45 -13.3 M154.05 -17.5 L150.25 -14.9 149.35 -15.4 152.25 -18.15 154.05 -17.5 M148.55 -20.35 L149.5 -21.0 154.25 -19.4 Q151.9 -17.95 149.75 -19.35 149.1 -19.8 148.55 -20.35 M188.2 -25.8 L188.6 -22.0 Q189.4 -21.5 190.3 -21.1 193.15 -19.85 195.1 -22.3 L195.35 -28.1 194.7 -29.05 189.75 -28.75 188.2 -25.8 M238.65 -13.0 L237.35 -13.9 240.35 -17.35 236.6 -17.25 232.75 -21.4 232.75 -22.5 233.6 -23.65 235.25 -23.65 237.25 -21.4 Q260.65 -26.1 284.1 -29.3 285.0 -29.55 285.95 -28.95 L286.8 -28.15 286.6 -26.65 Q276.65 -26.5 267.3 -22.9 269.25 -21.8 270.9 -20.45 273.15 -18.65 274.25 -16.15 L274.8 -14.85 288.5 -19.25 289.5 -18.65 289.6 -17.5 Q287.6 -15.3 285.0 -13.9 280.65 -11.5 275.65 -11.3 L275.75 -10.45 Q277.55 -9.15 279.65 -8.55 L285.35 -8.4 286.8 -8.8 287.1 -7.5 Q285.9 -6.45 284.35 -5.9 L279.5 -5.7 Q278.35 -5.9 277.35 -6.45 L275.8 -7.15 275.5 -5.75 281.55 -1.8 280.3 -1.25 279.35 -1.2 277.6 -1.5 Q276.15 -1.8 275.35 -2.85 L274.65 -3.8 274.15 -3.2 271.2 -9.05 Q270.2 -5.45 266.35 -4.45 262.95 -3.55 260.75 -6.4 L260.4 -10.85 260.75 -11.25 260.75 -12.0 265.5 -15.75 268.1 -14.05 263.85 -18.75 Q250.2 -20.35 238.65 -13.0 M266.45 6.65 Q259.15 15.05 248.5 11.2 244.2 9.65 240.85 6.5 L240.75 5.75 Q238.1 4.15 237.25 1.5 236.55 -0.55 236.95 -2.85 L237.85 -5.1 238.5 -4.75 Q237.95 0.8 242.25 4.15 246.85 7.75 252.7 8.3 259.95 9.25 266.45 6.65 M265.6 -7.05 Q266.75 -7.05 267.6 -7.85 268.4 -8.7 268.4 -9.9 268.4 -11.1 267.6 -11.9 266.75 -12.75 265.6 -12.75 264.45 -12.75 263.65 -11.9 262.8 -11.1 262.8 -9.9 262.8 -8.7 263.65 -7.85 264.45 -7.05 265.6 -7.05 M269.9 11.45 Q269.9 12.05 269.5 12.5 269.05 12.9 268.45 12.9 267.85 12.9 267.45 12.5 267.0 12.05 267.0 11.45 267.0 10.85 267.45 10.45 267.85 10.0 268.45 10.0 269.05 10.0 269.5 10.45 269.9 10.85 269.9 11.45 M266.3 14.9 Q265.95 15.25 265.45 15.25 264.95 15.25 264.6 14.9 264.25 14.5 264.25 14.0 264.25 13.5 264.6 13.15 264.95 12.75 265.45 12.75 265.95 12.75 266.3 13.15 266.65 13.5 266.65 14.0 L266.3 14.9 M262.0 13.85 L262.3 15.2 262.0 16.55 261.3 17.1 260.6 16.55 Q260.3 16.0 260.3 15.2 260.3 14.4 260.6 13.85 260.9 13.3 261.3 13.3 261.7 13.3 262.0 13.85" fill="#000000" fill-rule="evenodd" stroke="none"/>
    <path d="M200.0 -19.1 Q199.7 -10.65 193.45 -5.0 L191.85 -3.7 Q182.4 -2.05 173.25 -5.75 163.95 -9.3 158.45 -17.9 L157.9 -19.3 Q156.5 -26.75 157.95 -34.3 L167.85 -37.65 168.5 -38.4 176.3 -39.0 Q186.7 -38.2 193.65 -30.45 L192.6 -30.5 190.8 -30.05 Q185.85 -28.25 185.85 -22.65 L186.35 -21.9 186.35 -21.15 Q187.8 -17.95 191.25 -17.7 196.4 -17.4 198.55 -21.95 L199.35 -19.65 200.0 -19.1 M188.2 -25.8 L189.75 -28.75 194.7 -29.05 195.35 -28.1 195.1 -22.3 Q193.15 -19.85 190.3 -21.1 189.4 -21.5 188.6 -22.0 L188.2 -25.8 M274.15 -3.2 Q272.8 2.65 267.75 5.9 L266.45 6.65 Q259.95 9.25 252.7 8.3 246.85 7.75 242.25 4.15 237.95 0.8 238.5 -4.75 L237.85 -5.1 236.95 -2.85 238.65 -13.0 Q250.2 -20.35 263.85 -18.75 L268.1 -14.05 265.5 -15.75 260.75 -12.0 260.75 -11.25 260.4 -10.85 260.75 -6.4 Q262.95 -3.55 266.35 -4.45 270.2 -5.45 271.2 -9.05 L274.15 -3.2 M265.6 -7.05 Q264.45 -7.05 263.65 -7.85 262.8 -8.7 262.8 -9.9 262.8 -11.1 263.65 -11.9 264.45 -12.75 265.6 -12.75 266.75 -12.75 267.6 -11.9 268.4 -11.1 268.4 -9.9 268.4 -8.7 267.6 -7.85 266.75 -7.05 265.6 -7.05" fill="#ffffff" fill-rule="evenodd" stroke="none"/>
  </g>
</svg>
