<?xml version="1.0" encoding="UTF-8" standalone="no"?>
<svg xmlns:ffdec="https://www.free-decompiler.com/flash" xmlns:xlink="http://www.w3.org/1999/xlink" ffdec:objectType="shape" height="317.9px" width="443.7px" xmlns="http://www.w3.org/2000/svg">
  <g transform="matrix(1.0, 0.0, 0.0, 1.0, 102.7, 110.7)">
    <path d="M276.55 -110.6 Q296.75 -111.45 315.2 -103.25 334.7 -94.6 339.85 -73.85 342.65 -62.6 338.75 -51.7 334.4 -39.65 322.25 -35.1 315.95 -20.95 301.8 -13.6 290.95 -7.85 278.75 -5.5 261.25 -1.95 245.6 -10.45 L245.25 -12.0 Q253.65 -16.8 259.35 -25.0 267.8 -37.2 268.6 -52.0 256.6 -36.8 238.7 -29.0 223.1 -22.25 206.1 -22.75 L205.15 -24.65 Q219.2 -35.35 228.3 -50.6 L233.5 -59.9 Q221.1 -47.05 204.45 -39.85 196.85 -36.6 189.0 -34.25 172.95 -29.55 156.25 -31.75 L156.1 -33.9 Q179.65 -38.85 198.3 -54.0 L207.3 -61.6 Q208.65 -62.75 209.75 -64.25 199.4 -59.15 188.5 -54.6 166.2 -45.25 141.9 -46.3 L139.95 -45.75 Q134.8 -34.75 135.75 -22.3 136.85 -7.25 129.0 5.7 119.15 21.95 100.15 23.85 72.85 26.9 53.0 8.05 49.5 4.75 47.35 0.2 41.8 -11.55 30.4 -16.8 25.65 -19.0 20.65 -17.75 18.3 -17.15 16.2 -15.85 13.65 -14.25 11.0 -12.8 L11.1 -18.25 Q18.9 -29.65 32.45 -31.95 55.5 -36.15 76.45 -25.1 88.85 -18.6 99.15 -8.95 100.65 -7.5 102.55 -6.45 111.2 -1.65 118.6 -6.85 120.5 -8.15 121.9 -10.05 132.85 -24.65 130.8 -42.65 L130.0 -48.4 Q105.15 -54.45 85.9 -71.3 L82.65 -74.15 Q88.0 -77.1 94.05 -74.65 97.95 -72.95 102.3 -72.45 113.15 -70.6 124.0 -72.75 100.8 -71.3 81.85 -84.35 75.7 -88.55 71.4 -94.5 70.8 -95.35 70.5 -96.4 103.85 -92.0 136.65 -99.35 143.05 -100.7 149.05 -103.25 154.8 -105.75 161.05 -106.95 L161.35 -106.45 Q145.2 -94.3 124.65 -92.65 L119.6 -92.3 Q101.25 -90.1 82.8 -91.8 L77.5 -92.4 Q84.85 -85.4 94.45 -82.3 114.55 -75.65 135.85 -77.55 L144.65 -78.1 137.65 -72.6 Q120.45 -67.55 102.4 -69.75 L93.0 -70.75 Q100.2 -64.15 109.15 -59.8 131.75 -48.7 156.85 -50.45 168.3 -51.35 179.5 -54.75 L211.25 -65.25 205.45 -55.45 Q192.15 -42.55 174.8 -35.7 L171.35 -34.25 Q196.05 -38.05 217.55 -50.95 L221.65 -53.4 235.85 -62.65 231.3 -48.05 Q225.35 -36.9 215.85 -28.65 L213.75 -27.0 Q232.95 -26.6 248.95 -37.75 259.0 -44.7 267.15 -53.4 L270.75 -57.65 269.3 -43.85 Q266.25 -26.55 253.75 -14.6 252.3 -13.2 250.75 -11.9 265.2 -6.6 280.15 -9.95 302.5 -15.0 316.1 -32.9 324.85 -44.4 322.6 -58.7 321.7 -64.35 318.8 -69.5 L307.75 -82.65 Q312.45 -80.75 316.55 -77.25 322.25 -72.5 325.15 -65.5 329.6 -54.1 325.35 -42.6 L324.05 -39.35 Q330.7 -43.75 334.1 -50.85 337.05 -57.0 336.6 -63.75 335.45 -83.65 319.45 -95.95 313.15 -100.8 305.5 -103.3 289.75 -108.5 273.25 -110.15 L276.55 -110.6 M130.15 -4.15 Q135.2 -16.1 134.2 -29.0 L133.85 -32.75 Q133.15 -15.0 119.9 -3.75 115.5 -0.05 109.8 -0.95 101.15 -1.7 94.85 -7.85 89.55 -13.05 83.5 -17.3 63.95 -31.05 40.25 -30.7 25.45 -30.5 16.0 -19.5 L23.9 -20.7 Q41.0 -18.55 48.8 -2.8 56.1 11.95 71.85 17.9 90.85 25.05 109.85 17.55 125.05 11.5 130.15 -4.15 M132.85 -47.8 L134.75 -35.9 136.7 -47.8 132.85 -47.8 M283.75 46.65 L280.1 22.4 Q277.9 30.55 271.1 36.55 260.45 46.05 246.2 45.3 240.85 44.85 235.85 43.0 236.45 44.75 237.35 46.3 242.85 55.95 254.0 56.3 L254.6 56.55 250.85 59.4 240.95 61.75 Q252.45 74.0 268.25 69.55 270.15 69.0 271.85 67.9 283.75 60.65 283.75 46.65 M281.95 12.75 Q282.55 20.3 284.8 28.1 289.5 44.4 283.75 59.7 282.65 62.7 280.5 65.05 269.6 76.85 254.05 72.9 241.25 69.45 235.6 57.5 L244.5 59.35 247.35 58.25 Q239.45 56.5 235.25 49.8 232.05 44.8 234.25 39.6 246.25 43.6 258.35 40.3 269.75 37.25 274.7 26.95 276.45 23.3 277.25 19.1 278.4 13.3 281.05 9.8 L281.95 12.75 M101.35 194.15 Q116.75 189.75 131.15 182.65 148.7 174.0 165.15 163.25 181.25 152.7 196.35 140.95 205.25 134.05 214.25 127.25 204.95 125.1 196.6 120.3 187.2 114.95 180.15 106.65 176.6 102.45 174.15 97.7 172.3 94.0 172.35 89.6 168.25 100.45 161.7 110.0 150.7 126.05 137.95 140.5 126.15 153.95 113.5 166.5 104.75 175.1 95.15 182.6 L83.4 191.3 83.4 192.35 Q83.35 194.5 82.85 195.75 82.3 196.95 81.65 196.8 81.0 196.6 80.6 195.15 80.15 193.65 80.2 192.05 L79.6 180.1 78.35 179.35 Q78.1 160.75 80.4 142.25 82.45 125.95 86.0 109.9 90.45 90.05 97.15 71.0 101.15 59.65 105.6 48.35 L107.85 41.6 Q88.9 40.35 70.1 41.7 59.8 42.2 49.65 40.35 36.35 38.3 23.7 33.45 14.3 29.85 5.25 24.85 11.3 31.65 15.85 39.7 20.4 47.8 23.15 56.8 26.65 68.3 28.8 80.05 32.1 98.5 36.85 116.55 41.4 133.9 45.45 151.45 48.65 165.15 48.95 179.45 L49.05 188.9 48.0 195.6 47.75 193.85 46.85 193.1 46.25 188.65 Q44.9 171.4 41.3 154.35 37.75 137.65 33.85 121.3 L31.6 112.1 Q26.25 94.7 23.35 76.6 20.25 56.95 10.35 39.5 6.05 31.9 -0.3 25.85 -19.55 29.0 -39.05 28.6 -64.75 28.1 -89.05 20.0 L-101.95 15.65 Q-97.3 24.05 -95.65 33.4 -93.2 47.35 -93.15 61.5 L-92.9 80.95 -93.25 104.5 Q-82.55 104.8 -71.65 104.0 L-37.25 102.1 -21.1 103.3 -28.0 78.35 -39.4 47.35 -24.95 75.35 -18.4 97.45 -20.6 68.4 -25.65 38.45 -16.4 74.15 Q-13.95 90.15 -13.25 106.25 L-11.35 143.35 Q-10.25 163.15 -11.1 182.9 L-13.8 199.2 Q-14.65 172.85 -15.95 146.6 L-17.2 121.4 Q-17.55 114.3 -19.85 107.4 L-96.75 108.25 Q-96.35 76.3 -97.4 44.2 -97.5 41.4 -97.75 38.65 -98.45 30.3 -101.4 22.6 L-101.8 21.4 -102.5 17.85 Q-102.85 15.7 -102.5 13.6 L-50.05 24.55 Q-51.75 18.0 -51.75 11.2 L-51.5 2.1 Q-51.0 -7.25 -48.4 -16.3 L-47.4 -19.25 -45.0 -25.1 -42.25 -30.65 Q-40.8 -25.35 -37.85 -20.9 -34.5 -15.9 -30.75 -11.15 -22.0 -0.2 -11.55 9.2 L-8.65 11.6 -2.6 15.9 Q6.9 22.0 17.4 26.35 50.8 40.35 87.1 37.7 L106.55 37.0 Q110.3 37.5 112.95 40.25 112.5 43.25 110.8 45.65 L109.7 47.3 Q109.0 48.4 108.6 49.65 100.5 74.2 93.8 99.3 91.6 107.6 89.65 116.0 87.55 124.95 85.95 134.05 82.75 152.15 82.9 170.4 L83.35 188.75 Q102.8 172.0 120.8 153.75 L132.05 141.85 Q144.5 128.25 154.8 112.85 L158.45 107.1 165.1 95.25 171.4 83.2 174.2 82.7 175.7 83.6 Q176.6 86.5 176.7 90.05 176.8 92.4 177.5 94.7 179.45 100.85 184.25 105.3 L186.35 107.25 190.6 110.9 Q194.65 114.35 199.55 117.2 209.25 122.75 220.3 124.95 L214.8 132.5 Q218.8 138.85 221.05 146.05 222.3 150.1 223.2 154.35 225.05 163.2 224.1 172.3 L223.75 174.65 222.9 179.3 Q221.95 183.75 220.2 188.1 215.75 199.2 207.5 207.2 L207.25 207.2 206.9 204.75 Q216.9 187.95 218.35 168.25 219.65 150.6 211.3 135.15 L168.8 165.4 Q152.25 176.6 134.2 185.1 122.9 190.5 111.25 195.15 L93.65 201.3 93.55 201.1 Q93.4 198.3 96.55 196.7 L101.35 194.15 M-42.35 -24.2 Q-47.95 -6.4 -47.6 12.2 -47.45 18.75 -45.15 24.95 L-3.8 22.35 Q-20.75 7.85 -34.75 -9.8 -37.65 -13.45 -39.8 -17.7 L-40.7 -19.8 -42.35 -24.2" fill="#000000" fill-rule="evenodd" stroke="none"/>
    <path d="M168.8 165.4 L211.3 135.15 Q219.65 150.6 218.35 168.25 216.9 187.95 206.9 204.75 L155.55 199.6 Q155.5 197.4 155.6 195.25 156.25 177.95 168.8 165.4 M-16.4 74.15 L-25.65 38.45 -20.6 68.4 -24.95 75.35 -39.4 47.35 -28.0 78.35 Q-40.3 87.25 -55.4 88.6 -75.1 90.05 -92.9 80.95 L-93.15 61.5 Q-93.2 47.35 -95.65 33.4 -97.3 24.05 -101.95 15.65 L-89.05 20.0 Q-64.75 28.1 -39.05 28.6 -19.55 29.0 -0.3 25.85 6.05 31.9 10.35 39.5 20.25 56.95 23.35 76.6 26.25 94.7 31.6 112.1 L25.95 148.1 Q20.9 151.2 15.35 149.05 10.4 147.1 7.6 142.45 -2.75 125.4 -8.35 106.25 -13.0 90.35 -16.4 74.15 M200.55 123.7 Q201.55 128.05 198.5 131.1 195.15 134.35 191.35 137.2 177.9 147.35 163.55 156.15 152.75 162.85 141.5 168.75 L140.75 170.0 99.45 187.75 98.0 186.0 Q138.15 165.9 175.05 140.25 183.9 134.1 191.1 126.05 L194.7 122.0 198.95 122.1 200.55 123.7 M29.0 36.0 L31.25 36.25 Q38.3 50.2 42.6 65.3 46.05 77.5 48.75 90.2 L53.0 110.65 56.9 131.0 60.7 151.45 Q63.0 163.6 64.05 176.45 64.6 182.7 62.35 188.7 L59.5 188.75 Q54.1 175.2 52.7 160.6 51.45 148.0 49.45 135.5 L45.35 110.95 42.95 98.7 40.3 86.55 Q34.8 62.25 26.95 38.7 L29.0 36.0" fill="#ffffff" fill-rule="evenodd" stroke="none"/>
    <path d="M161.35 -106.45 L276.55 -110.6 273.25 -110.15 Q289.75 -108.5 305.5 -103.3 313.15 -100.8 319.45 -95.95 335.45 -83.65 336.6 -63.75 L325.15 -65.5 Q322.25 -72.5 316.55 -77.25 312.45 -80.75 307.75 -82.65 L318.8 -69.5 314.2 -74.45 Q319.05 -62.7 315.15 -50.6 311.9 -40.65 302.9 -36.05 294.55 -31.75 285.2 -32.75 274.2 -34.3 269.3 -43.85 L270.75 -57.65 267.15 -53.4 266.95 -56.0 Q258.75 -47.1 246.8 -45.05 L242.7 -44.15 Q235.4 -42.65 231.3 -48.05 L235.85 -62.65 221.65 -53.4 Q213.9 -49.45 206.25 -53.85 L205.45 -55.45 211.25 -65.25 179.5 -54.75 Q165.15 -53.65 151.35 -57.6 146.2 -59.2 141.3 -61.8 133.8 -65.7 137.65 -72.6 L144.65 -78.1 135.85 -77.55 Q129.1 -77.55 124.35 -81.85 119.6 -86.2 119.6 -92.3 L124.65 -92.65 Q145.2 -94.3 161.35 -106.45 M23.9 -20.7 L16.0 -19.5 Q25.45 -30.5 40.25 -30.7 63.95 -31.05 83.5 -17.3 89.55 -13.05 94.85 -7.85 101.15 -1.7 109.8 -0.95 115.5 -0.05 119.9 -3.75 133.15 -15.0 133.85 -32.75 L134.2 -29.0 Q135.2 -16.1 130.15 -4.15 116.9 10.35 97.25 9.75 91.2 9.5 85.75 7.25 68.15 -0.35 52.55 -11.5 47.5 -15.2 42.15 -18.3 33.65 -23.4 23.9 -20.7 M132.85 -47.8 L136.7 -47.8 134.75 -35.9 132.85 -47.8 M250.85 59.4 L254.6 56.55 254.0 56.3 Q242.85 55.95 237.35 46.3 236.45 44.75 235.85 43.0 240.85 44.85 246.2 45.3 260.45 46.05 271.1 36.55 277.9 30.55 280.1 22.4 L283.75 46.65 282.2 48.25 Q269.15 61.05 250.85 59.4" fill="#ffff00" fill-rule="evenodd" stroke="none"/>
    <path d="M-42.35 -24.2 L-40.7 -19.8 -39.8 -17.7 Q-37.65 -13.45 -34.75 -9.8 -20.75 7.85 -3.8 22.35 L-45.15 24.95 Q-47.45 18.75 -47.6 12.2 -47.95 -6.4 -42.35 -24.2" fill="#1f476a" fill-rule="evenodd" stroke="none"/>
    <path d="M83.4 192.35 L83.4 191.3 95.15 182.6 Q104.75 175.1 113.5 166.5 126.15 153.95 137.95 140.5 150.7 126.05 161.7 110.0 168.25 100.45 172.35 89.6 172.3 94.0 174.15 97.7 176.6 102.45 180.15 106.65 187.2 114.95 196.6 120.3 204.95 125.1 214.25 127.25 205.25 134.05 196.35 140.95 181.25 152.7 165.15 163.25 148.7 174.0 131.15 182.65 116.75 189.75 101.35 194.15 L83.4 192.35 M49.05 188.9 L48.95 179.45 Q48.65 165.15 45.45 151.45 41.4 133.9 36.85 116.55 32.1 98.5 28.8 80.05 26.65 68.3 23.15 56.8 20.4 47.8 15.85 39.7 11.3 31.65 5.25 24.85 14.3 29.85 23.7 33.45 36.35 38.3 49.65 40.35 59.8 42.2 70.1 41.7 88.9 40.35 107.85 41.6 L105.6 48.35 Q101.15 59.65 97.15 71.0 90.45 90.05 86.0 109.9 82.45 125.95 80.4 142.25 78.1 160.75 78.35 179.35 L79.6 180.1 80.2 192.05 49.05 188.9 M29.0 36.0 L26.95 38.7 Q34.8 62.25 40.3 86.55 L42.95 98.7 45.35 110.95 49.45 135.5 Q51.45 148.0 52.7 160.6 54.1 175.2 59.5 188.75 L62.35 188.7 Q64.6 182.7 64.05 176.45 63.0 163.6 60.7 151.45 L56.9 131.0 53.0 110.65 48.75 90.2 Q46.05 77.5 42.6 65.3 38.3 50.2 31.25 36.25 L29.0 36.0 M200.55 123.7 L198.95 122.1 194.7 122.0 191.1 126.05 Q183.9 134.1 175.05 140.25 138.15 165.9 98.0 186.0 L99.45 187.75 140.75 170.0 141.5 168.75 Q152.75 162.85 163.55 156.15 177.9 147.35 191.35 137.2 195.15 134.35 198.5 131.1 201.55 128.05 200.55 123.7" fill="#006699" fill-rule="evenodd" stroke="none"/>
    <path d="M336.6 -63.75 Q337.05 -57.0 334.1 -50.85 330.7 -43.75 324.05 -39.35 L325.35 -42.6 Q329.6 -54.1 325.15 -65.5 L336.6 -63.75 M318.8 -69.5 Q321.7 -64.35 322.6 -58.7 324.85 -44.4 316.1 -32.9 302.5 -15.0 280.15 -9.95 265.2 -6.6 250.75 -11.9 252.3 -13.2 253.75 -14.6 266.25 -26.55 269.3 -43.85 274.2 -34.3 285.2 -32.75 294.55 -31.75 302.9 -36.05 311.9 -40.65 315.15 -50.6 319.05 -62.7 314.2 -74.45 L318.8 -69.5 M267.15 -53.4 Q259.0 -44.7 248.95 -37.75 232.95 -26.6 213.75 -27.0 L215.85 -28.65 Q225.35 -36.9 231.3 -48.05 235.4 -42.65 242.7 -44.15 L246.8 -45.05 Q258.75 -47.1 266.95 -56.0 L267.15 -53.4 M221.65 -53.4 L217.55 -50.95 Q196.05 -38.05 171.35 -34.25 L174.8 -35.7 Q192.15 -42.55 205.45 -55.45 L206.25 -53.85 Q213.9 -49.45 221.65 -53.4 M179.5 -54.75 Q168.3 -51.35 156.85 -50.45 131.75 -48.7 109.15 -59.8 100.2 -64.15 93.0 -70.75 L102.4 -69.75 Q120.45 -67.55 137.65 -72.6 133.8 -65.7 141.3 -61.8 146.2 -59.2 151.35 -57.6 165.15 -53.65 179.5 -54.75 M135.85 -77.55 Q114.55 -75.65 94.45 -82.3 84.85 -85.4 77.5 -92.4 L82.8 -91.8 Q101.25 -90.1 119.6 -92.3 119.6 -86.2 124.35 -81.85 129.1 -77.55 135.85 -77.55 M23.9 -20.7 Q33.65 -23.4 42.15 -18.3 47.5 -15.2 52.55 -11.5 68.15 -0.35 85.75 7.25 91.2 9.5 97.25 9.75 116.9 10.35 130.15 -4.15 125.05 11.5 109.85 17.55 90.85 25.05 71.85 17.9 56.1 11.95 48.8 -2.8 41.0 -18.55 23.9 -20.7 M250.85 59.4 Q269.15 61.05 282.2 48.25 L283.75 46.65 Q283.75 60.65 271.85 67.9 270.15 69.0 268.25 69.55 252.45 74.0 240.95 61.75 L250.85 59.4" fill="#d1b200" fill-rule="evenodd" stroke="none"/>
    <path d="M111.25 195.15 Q122.9 190.5 134.2 185.1 152.25 176.6 168.8 165.4 156.25 177.95 155.6 195.25 155.5 197.4 155.55 199.6 L111.25 195.15 M-11.1 182.9 Q-10.25 163.15 -11.35 143.35 L-13.25 106.25 Q-13.95 90.15 -16.4 74.15 -13.0 90.35 -8.35 106.25 -2.75 125.4 7.6 142.45 10.4 147.1 15.35 149.05 20.9 151.2 25.95 148.1 L31.6 112.1 33.85 121.3 Q37.75 137.65 41.3 154.35 44.9 171.4 46.25 188.65 L-11.1 182.9 M-20.6 68.4 L-18.4 97.45 -24.95 75.35 -20.6 68.4 M-28.0 78.35 L-21.1 103.3 -37.25 102.1 -71.65 104.0 Q-82.55 104.8 -93.25 104.5 L-92.9 80.95 Q-75.1 90.05 -55.4 88.6 -40.3 87.25 -28.0 78.35" fill="#d0b1b1" fill-rule="evenodd" stroke="none"/>
  </g>
</svg>
