<?xml version="1.0" encoding="UTF-8" standalone="no"?>
<svg xmlns:ffdec="https://www.free-decompiler.com/flash" xmlns:xlink="http://www.w3.org/1999/xlink" ffdec:objectType="shape" height="43.3px" width="76.6px" xmlns="http://www.w3.org/2000/svg">
  <g transform="matrix(1.0, 0.0, 0.0, 1.0, -139.95, 157.15)">
    <path d="M160.1 -144.8 Q144.5 -133.3 144.45 -116.4 L140.65 -113.85 Q139.4 -118.75 140.45 -124.3 142.75 -136.35 155.75 -146.35 168.7 -156.4 185.0 -157.1 201.3 -157.85 214.4 -147.85 L216.55 -146.1 213.8 -145.85 Q192.6 -158.95 168.05 -148.65 163.9 -146.95 160.1 -144.8" fill="#000000" fill-rule="evenodd" stroke="none"/>
    <path d="M161.65 -129.1 Q160.1 -136.4 160.1 -144.8 163.9 -146.95 168.05 -148.65 192.6 -158.95 213.8 -145.85 200.9 -144.5 188.55 -141.15 174.0 -137.15 161.65 -129.1" fill="#990000" fill-rule="evenodd" stroke="none"/>
    <path d="M144.45 -116.4 Q144.5 -133.3 160.1 -144.8 160.1 -136.4 161.65 -129.1 157.95 -126.65 154.4 -123.85 L144.45 -116.4" fill="#660000" fill-rule="evenodd" stroke="none"/>
  </g>
</svg>
